<svg xmlns="http://www.w3.org/2000/svg" version="1.1" xmlns:xlink="http://www.w3.org/1999/xlink" viewBox="0 0 200 200"><rect width="200" height="200" fill="url('#gradient')"></rect><defs><linearGradient id="gradient" gradientTransform="rotate(0 0.5 0.5)"><stop offset="0%" stop-color="#ffffff"></stop><stop offset="100%" stop-color="#ffffff"></stop></linearGradient></defs><g><g fill="#445272" transform="matrix(4.1776971894832275,0,0,4.1776971894832275,5.5191901507209025,129.7028024414941)" stroke="#c8512e" stroke-width="0"><path d="M8.94 0L5.91-5.29L4.50-3.75L4.50 0L1.07 0L1.07-14.22L4.50-14.22L4.50-7.95L5.69-9.76L8.76-14.22L13.00-14.22L8.19-7.93L13.00 0L8.94 0ZM13.87-14.22L18.37-14.22L21.54-4.33L24.71-14.22L29.22-14.22L29.22 0L25.78 0L25.78-3.32L26.11-10.12L22.68 0L20.41 0L16.96-10.13L17.29-3.32L17.29 0L13.87 0L13.87-14.22ZM40.48 0L39.65-2.66L34.95-2.66L34.13 0L30.47 0L35.68-14.22L38.91-14.22L44.16 0L40.48 0ZM37.29-10.23L35.77-5.30L38.83-5.30L37.29-10.23Z"></path></g></g></svg>